name ./resultDataOpenSim/trcMotMarkerGrf/sub10/grf-05-01.mot
datacolumns 19
datarows 20
range 0.49600000 0.57200000
endheader

                time	     ground_force_vx	     ground_force_vy	     ground_force_vz	     ground_force_px	     ground_force_py	     ground_force_pz	   l_ground_force_vx	   l_ground_force_vy	   l_ground_force_vz	   l_ground_force_px	   l_ground_force_py	   l_ground_force_pz	     ground_torque_x	     ground_torque_y	     ground_torque_z	   l_ground_torque_x	   l_ground_torque_y	   l_ground_torque_z	
          0.49600000	         51.70212291	        423.61315211	         -8.35760778	         -0.81886530	          0.00000000	          0.01668408	          0.00000000	          0.00000000	          0.00000000	          0.00000000	          0.00000000	          0.00000000	          0.00000000	          3.30310178	          0.00000000	          0.00000000	          0.00000000	          0.00000000	
          0.50000000	         53.96935588	        428.95527448	         -8.81931615	         -0.81802438	          0.00000000	          0.01675733	          0.00000000	          0.00000000	          0.00000000	          0.00000000	          0.00000000	          0.00000000	          0.00000000	          3.37444941	          0.00000000	          0.00000000	          0.00000000	          0.00000000	
          0.50400000	         56.19552413	        434.98181821	         -9.71982143	         -0.81710428	          0.00000000	          0.01684388	          0.00000000	          0.00000000	          0.00000000	          0.00000000	          0.00000000	          0.00000000	          0.00000000	          3.43049040	          0.00000000	          0.00000000	          0.00000000	          0.00000000	
          0.50800000	         58.45236078	        441.64210366	        -10.97415480	         -0.81613071	          0.00000000	          0.01694645	          0.00000000	          0.00000000	          0.00000000	          0.00000000	          0.00000000	          0.00000000	          0.00000000	          3.47723847	          0.00000000	          0.00000000	          0.00000000	          0.00000000	
          0.51200000	         60.75512236	        448.85401817	        -12.42830437	         -0.81510742	          0.00000000	          0.01706843	          0.00000000	          0.00000000	          0.00000000	          0.00000000	          0.00000000	          0.00000000	          0.00000000	          3.52459683	          0.00000000	          0.00000000	          0.00000000	          0.00000000	
          0.51600000	         63.07234881	        456.52302395	        -13.90162840	         -0.81402858	          0.00000000	          0.01720963	          0.00000000	          0.00000000	          0.00000000	          0.00000000	          0.00000000	          0.00000000	          0.00000000	          3.58373765	          0.00000000	          0.00000000	          0.00000000	          0.00000000	
          0.52000000	         65.34658923	        464.57800807	        -15.23289150	         -0.81288948	          0.00000000	          0.01736327	          0.00000000	          0.00000000	          0.00000000	          0.00000000	          0.00000000	          0.00000000	          0.00000000	          3.66411611	          0.00000000	          0.00000000	          0.00000000	          0.00000000	
          0.52400000	         67.52095231	        472.99938683	        -16.31821039	         -0.81169069	          0.00000000	          0.01751581	          0.00000000	          0.00000000	          0.00000000	          0.00000000	          0.00000000	          0.00000000	          0.00000000	          3.77072397	          0.00000000	          0.00000000	          0.00000000	          0.00000000	
          0.52800000	         69.56854366	        481.82008515	        -17.13275553	         -0.81044619	          0.00000000	          0.01764812	          0.00000000	          0.00000000	          0.00000000	          0.00000000	          0.00000000	          0.00000000	          0.00000000	          3.90214755	          0.00000000	          0.00000000	          0.00000000	          0.00000000	
          0.53200000	         71.51566997	        491.09396687	        -17.73427461	         -0.80918008	          0.00000000	          0.01774733	          0.00000000	          0.00000000	          0.00000000	          0.00000000	          0.00000000	          0.00000000	          0.00000000	          4.04992371	          0.00000000	          0.00000000	          0.00000000	          0.00000000	
          0.53600000	         73.44832498	        500.85808081	        -18.25081304	         -0.80791067	          0.00000000	          0.01781957	          0.00000000	          0.00000000	          0.00000000	          0.00000000	          0.00000000	          0.00000000	          0.00000000	          4.19949101	          0.00000000	          0.00000000	          0.00000000	          0.00000000	
          0.54000000	         75.50104214	        511.12220042	        -18.85170990	         -0.80664691	          0.00000000	          0.01787680	          0.00000000	          0.00000000	          0.00000000	          0.00000000	          0.00000000	          0.00000000	          0.00000000	          4.33266052	          0.00000000	          0.00000000	          0.00000000	          0.00000000	
          0.54400000	         77.83446024	        521.88339172	        -19.70359743	         -0.80541052	          0.00000000	          0.01792159	          0.00000000	          0.00000000	          0.00000000	          0.00000000	          0.00000000	          0.00000000	          0.00000000	          4.43109638	          0.00000000	          0.00000000	          0.00000000	          0.00000000	
          0.54800000	         80.60648203	        533.13922809	        -20.92450555	         -0.80423573	          0.00000000	          0.01794990	          0.00000000	          0.00000000	          0.00000000	          0.00000000	          0.00000000	          0.00000000	          0.00000000	          4.48001448	          0.00000000	          0.00000000	          0.00000000	          0.00000000	
          0.55200000	         83.94045036	        544.88616409	        -22.55105557	         -0.80315212	          0.00000000	          0.01795834	          0.00000000	          0.00000000	          0.00000000	          0.00000000	          0.00000000	          0.00000000	          0.00000000	          4.47129812	          0.00000000	          0.00000000	          0.00000000	          0.00000000	
          0.55600000	         87.89903840	        557.10428210	        -24.52277797	         -0.80217371	          0.00000000	          0.01794225	          0.00000000	          0.00000000	          0.00000000	          0.00000000	          0.00000000	          0.00000000	          0.00000000	          4.40542843	          0.00000000	          0.00000000	          0.00000000	          0.00000000	
          0.56000000	         92.47681649	        569.73007831	        -26.68094264	         -0.80129992	          0.00000000	          0.01789015	          0.00000000	          0.00000000	          0.00000000	          0.00000000	          0.00000000	          0.00000000	          0.00000000	          4.29189788	          0.00000000	          0.00000000	          0.00000000	          0.00000000	
          0.56400000	         97.61491445	        582.63100268	        -28.78340296	         -0.80051964	          0.00000000	          0.01778327	          0.00000000	          0.00000000	          0.00000000	          0.00000000	          0.00000000	          0.00000000	          0.00000000	          4.14804131	          0.00000000	          0.00000000	          0.00000000	          0.00000000	
          0.56800000	        103.22464794	        595.61109140	        -30.54027464	         -0.79981130	          0.00000000	          0.01760075	          0.00000000	          0.00000000	          0.00000000	          0.00000000	          0.00000000	          0.00000000	          0.00000000	          3.99646648	          0.00000000	          0.00000000	          0.00000000	          0.00000000	
          0.57200000	        109.20613498	        608.45669421	        -31.66884916	         -0.79914801	          0.00000000	          0.01732650	          0.00000000	          0.00000000	          0.00000000	          0.00000000	          0.00000000	          0.00000000	          0.00000000	          3.86148276	          0.00000000	          0.00000000	          0.00000000	          0.00000000	
